<?xml version="1.0" encoding="UTF-8"?>
<!DOCTYPE svg PUBLIC "-//W3C//DTD SVG 1.1//EN" "http://www.w3.org/Graphics/SVG/1.1/DTD/svg11.dtd">
<!-- Creator: CorelDRAW 2019 -->
<svg xmlns="http://www.w3.org/2000/svg" xml:space="preserve" width="382px" height="104px" version="1.1" style="shape-rendering:geometricPrecision; text-rendering:geometricPrecision; image-rendering:optimizeQuality; fill-rule:evenodd; clip-rule:evenodd"
viewBox="0 0 36.57 9.94"
 xmlns:xlink="http://www.w3.org/1999/xlink"
 xmlns:xodm="http://www.corel.com/coreldraw/odm/2003">
 <defs>
  <style type="text/css">
   <![CDATA[
    .fil1 {fill:#333333;fill-rule:nonzero}
    .fil0 {fill:#E3161D;fill-rule:nonzero}
   ]]>
  </style>
 </defs>
 <g id="Layer_x0020_1">
  <metadata id="CorelCorpID_0Corel-Layer"/>
  <g id="_-1864553280">
   <path class="fil0" d="M4.2 1.42c-0.23,-0.2 -0.47,-0.34 -0.72,-0.44 -0.26,-0.1 -0.53,-0.15 -0.81,-0.15 -0.54,0 -0.98,0.18 -1.32,0.53 -0.34,0.34 -0.51,0.79 -0.51,1.35 0,0.53 0.17,0.97 0.5,1.32 0.33,0.35 0.75,0.52 1.25,0.52 0.29,0 0.57,-0.05 0.84,-0.15 0.26,-0.11 0.52,-0.26 0.76,-0.47l0 0.91c-0.21,0.16 -0.45,0.27 -0.71,0.35 -0.25,0.08 -0.53,0.11 -0.83,0.11 -0.38,0 -0.73,-0.06 -1.05,-0.18 -0.32,-0.13 -0.6,-0.31 -0.85,-0.55 -0.24,-0.24 -0.42,-0.52 -0.55,-0.84 -0.13,-0.32 -0.2,-0.67 -0.2,-1.03 0,-0.36 0.07,-0.71 0.2,-1.02 0.13,-0.32 0.31,-0.61 0.56,-0.85 0.25,-0.24 0.53,-0.43 0.85,-0.55 0.32,-0.13 0.66,-0.19 1.03,-0.19 0.29,0 0.57,0.04 0.83,0.13 0.27,0.08 0.52,0.21 0.77,0.38l-0.04 0.82z"/>
   <path id="1" class="fil0" d="M5.18 0.21l0.8 0 0 3.01c0,0.45 0.1,0.79 0.31,1.01 0.2,0.23 0.51,0.34 0.93,0.34 0.4,0 0.71,-0.11 0.92,-0.34 0.21,-0.22 0.31,-0.56 0.31,-1.01l0 -3.01 0.8 0 0 3.09c0,0.67 -0.16,1.17 -0.5,1.5 -0.34,0.34 -0.85,0.5 -1.54,0.5 -0.68,0 -1.19,-0.16 -1.53,-0.49 -0.33,-0.34 -0.5,-0.84 -0.5,-1.51l0 -3.09z"/>
   <path id="2" class="fil0" d="M10.08 4.18l0.64 -0.3c0.07,0.22 0.18,0.39 0.34,0.51 0.16,0.11 0.37,0.17 0.63,0.17 0.24,0 0.43,-0.07 0.57,-0.2 0.14,-0.13 0.21,-0.31 0.21,-0.53 0,-0.3 -0.24,-0.56 -0.73,-0.78 -0.07,-0.04 -0.12,-0.06 -0.15,-0.08 -0.55,-0.26 -0.91,-0.51 -1.1,-0.72 -0.18,-0.22 -0.27,-0.48 -0.27,-0.79 0,-0.41 0.14,-0.74 0.41,-0.99 0.28,-0.25 0.64,-0.37 1.08,-0.37 0.37,0 0.68,0.07 0.92,0.21 0.25,0.14 0.42,0.34 0.51,0.61l-0.63 0.32c-0.1,-0.15 -0.2,-0.27 -0.32,-0.34 -0.12,-0.07 -0.26,-0.11 -0.41,-0.11 -0.22,0 -0.39,0.06 -0.52,0.17 -0.13,0.11 -0.19,0.27 -0.19,0.46 0,0.29 0.28,0.57 0.84,0.83 0.04,0.02 0.08,0.04 0.1,0.05 0.49,0.22 0.83,0.44 1.01,0.66 0.18,0.22 0.28,0.49 0.28,0.81 0,0.47 -0.15,0.84 -0.45,1.12 -0.29,0.28 -0.69,0.41 -1.2,0.41 -0.42,0 -0.77,-0.09 -1.04,-0.29 -0.27,-0.19 -0.45,-0.47 -0.53,-0.83z"/>
   <polygon id="3" class="fil0" points="15.78,0.9 15.78,5.17 14.97,5.17 14.97,0.9 13.66,0.9 13.66,0.21 17.09,0.21 17.09,0.9 "/>
   <path id="4" class="fil0" d="M21.71 2.7c0,-0.25 -0.05,-0.49 -0.14,-0.71 -0.09,-0.23 -0.22,-0.43 -0.39,-0.61 -0.17,-0.17 -0.36,-0.31 -0.58,-0.4 -0.22,-0.09 -0.46,-0.14 -0.7,-0.14 -0.24,0 -0.48,0.05 -0.7,0.14 -0.22,0.09 -0.41,0.23 -0.58,0.4 -0.18,0.18 -0.31,0.38 -0.4,0.6 -0.09,0.23 -0.13,0.47 -0.13,0.72 0,0.25 0.04,0.49 0.13,0.71 0.09,0.23 0.22,0.43 0.4,0.6 0.17,0.18 0.36,0.31 0.58,0.41 0.22,0.09 0.45,0.13 0.7,0.13 0.24,0 0.47,-0.04 0.69,-0.13 0.22,-0.1 0.41,-0.23 0.59,-0.41 0.17,-0.17 0.3,-0.37 0.39,-0.6 0.09,-0.22 0.14,-0.46 0.14,-0.71zm0.84 0c0,0.35 -0.07,0.69 -0.2,1 -0.13,0.32 -0.32,0.6 -0.58,0.84 -0.25,0.25 -0.54,0.44 -0.86,0.57 -0.32,0.13 -0.66,0.19 -1.01,0.19 -0.36,0 -0.7,-0.06 -1.02,-0.19 -0.33,-0.14 -0.61,-0.32 -0.86,-0.57 -0.25,-0.24 -0.45,-0.52 -0.58,-0.84 -0.13,-0.31 -0.19,-0.64 -0.19,-1 0,-0.35 0.06,-0.69 0.19,-1 0.13,-0.32 0.33,-0.6 0.58,-0.85 0.25,-0.24 0.54,-0.43 0.86,-0.56 0.32,-0.13 0.66,-0.19 1.02,-0.19 0.36,0 0.7,0.06 1.02,0.19 0.31,0.13 0.6,0.32 0.85,0.56 0.26,0.25 0.45,0.54 0.58,0.85 0.13,0.32 0.2,0.65 0.2,1z"/>
   <path id="5" class="fil0" d="M27.52 2.72c-0.01,-0.04 -0.02,-0.14 -0.04,-0.32 -0.02,-0.14 -0.04,-0.26 -0.05,-0.36 -0.02,0.12 -0.05,0.23 -0.09,0.34 -0.03,0.12 -0.08,0.23 -0.14,0.35l-1.3 2.64 -1.29 -2.7c-0.06,-0.11 -0.11,-0.21 -0.14,-0.32 -0.04,-0.1 -0.08,-0.2 -0.11,-0.31 0,0.11 -0.01,0.22 -0.02,0.33 -0.02,0.12 -0.04,0.23 -0.07,0.36l-0.53 2.44 -0.74 0 1.17 -5.17 1.46 3.13c0.03,0.05 0.06,0.13 0.11,0.25 0.04,0.11 0.1,0.26 0.16,0.43 0.05,-0.15 0.13,-0.33 0.23,-0.55 0.03,-0.05 0.05,-0.1 0.06,-0.13l1.43 -3.13 1.2 5.17 -0.75 0 -0.55 -2.45z"/>
   <polygon id="6" class="fil0" points="29.47,5.17 29.47,0.21 32.24,0.21 32.24,0.9 30.27,0.9 30.27,2.14 32.24,2.14 32.24,2.85 30.27,2.85 30.27,4.45 32.24,4.45 32.24,5.17 "/>
   <path id="7" class="fil0" d="M33.97 2.33l0.14 0c0.43,0 0.71,-0.05 0.85,-0.15 0.14,-0.1 0.21,-0.28 0.21,-0.53 0,-0.28 -0.07,-0.47 -0.22,-0.58 -0.15,-0.11 -0.43,-0.17 -0.84,-0.17l-0.14 0 0 1.43zm-0.05 0.62l0 2.22 -0.76 0 0 -4.96 1.12 0c0.33,0 0.59,0.02 0.77,0.06 0.18,0.05 0.34,0.12 0.47,0.22 0.15,0.12 0.27,0.27 0.35,0.46 0.09,0.19 0.13,0.4 0.13,0.62 0,0.4 -0.1,0.71 -0.29,0.94 -0.19,0.22 -0.47,0.36 -0.85,0.4l1.71 2.26 -0.91 0 -1.65 -2.22 -0.09 0z"/>
   <path class="fil1" d="M0 9.01l0.51 -0.24c0.04,0.18 0.13,0.31 0.26,0.4 0.13,0.09 0.29,0.14 0.49,0.14 0.19,0 0.34,-0.06 0.45,-0.16 0.11,-0.11 0.17,-0.25 0.17,-0.42 0,-0.23 -0.19,-0.44 -0.57,-0.62 -0.06,-0.02 -0.1,-0.04 -0.12,-0.05 -0.44,-0.21 -0.72,-0.4 -0.87,-0.57 -0.14,-0.17 -0.21,-0.38 -0.21,-0.63 0,-0.32 0.11,-0.57 0.32,-0.77 0.22,-0.2 0.5,-0.3 0.85,-0.3 0.29,0 0.53,0.06 0.73,0.17 0.19,0.11 0.33,0.27 0.4,0.48l-0.5 0.25c-0.07,-0.12 -0.16,-0.21 -0.25,-0.27 -0.1,-0.05 -0.2,-0.08 -0.33,-0.08 -0.17,0 -0.3,0.04 -0.4,0.13 -0.1,0.09 -0.15,0.21 -0.15,0.36 0,0.24 0.22,0.45 0.66,0.66 0.03,0.01 0.06,0.03 0.08,0.03 0.39,0.18 0.65,0.36 0.79,0.53 0.15,0.17 0.22,0.38 0.22,0.63 0,0.37 -0.12,0.67 -0.35,0.88 -0.23,0.22 -0.55,0.33 -0.94,0.33 -0.34,0 -0.61,-0.07 -0.82,-0.23 -0.22,-0.15 -0.35,-0.37 -0.42,-0.65z"/>
   <path id="1" class="fil1" d="M4.05 8.25l1.09 0 -0.4 -0.89c-0.02,-0.06 -0.05,-0.12 -0.07,-0.19 -0.03,-0.08 -0.05,-0.16 -0.08,-0.25 -0.02,0.08 -0.04,0.16 -0.07,0.24 -0.02,0.07 -0.05,0.14 -0.07,0.2l-0.4 0.89zm1.76 1.54l-0.45 -1.01 -1.55 0 -0.45 1.01 -0.67 0 1.9 -4.06 1.89 4.06 -0.67 0z"/>
   <polygon id="2" class="fil1" points="7.81,6.42 7.81,9.79 7.17,9.79 7.17,6.42 6.13,6.42 6.13,5.88 8.84,5.88 8.84,6.42 "/>
   <polygon id="3" class="fil1" points="9.34,9.79 9.34,5.88 9.97,5.88 9.97,9.79 "/>
   <path id="4" class="fil1" d="M10.66 9.01l0.51 -0.24c0.04,0.18 0.13,0.31 0.26,0.4 0.13,0.09 0.29,0.14 0.49,0.14 0.19,0 0.34,-0.06 0.45,-0.16 0.11,-0.11 0.17,-0.25 0.17,-0.42 0,-0.23 -0.19,-0.44 -0.57,-0.62 -0.06,-0.02 -0.1,-0.04 -0.13,-0.05 -0.43,-0.21 -0.71,-0.4 -0.86,-0.57 -0.14,-0.17 -0.21,-0.38 -0.21,-0.63 0,-0.32 0.11,-0.57 0.32,-0.77 0.22,-0.2 0.5,-0.3 0.85,-0.3 0.29,0 0.53,0.06 0.73,0.17 0.19,0.11 0.33,0.27 0.4,0.48l-0.5 0.25c-0.07,-0.12 -0.16,-0.21 -0.25,-0.27 -0.1,-0.05 -0.2,-0.08 -0.33,-0.08 -0.17,0 -0.3,0.04 -0.4,0.13 -0.1,0.09 -0.15,0.21 -0.15,0.36 0,0.24 0.22,0.45 0.66,0.66 0.03,0.01 0.06,0.03 0.08,0.03 0.39,0.18 0.65,0.36 0.79,0.53 0.15,0.17 0.22,0.38 0.22,0.63 0,0.37 -0.12,0.67 -0.35,0.88 -0.23,0.22 -0.55,0.33 -0.95,0.33 -0.33,0 -0.6,-0.07 -0.81,-0.23 -0.22,-0.15 -0.35,-0.37 -0.42,-0.65z"/>
   <polygon id="5" class="fil1" points="13.88,9.79 13.88,5.88 16.06,5.88 16.06,6.42 14.52,6.42 14.52,7.39 16.06,7.39 16.06,7.95 14.52,7.95 14.52,9.79 "/>
   <path id="6" class="fil1" d="M17.38 8.25l1.09 0 -0.4 -0.89c-0.02,-0.06 -0.05,-0.12 -0.07,-0.19 -0.03,-0.08 -0.05,-0.16 -0.08,-0.25 -0.02,0.08 -0.04,0.16 -0.06,0.24 -0.03,0.07 -0.05,0.14 -0.08,0.2l-0.4 0.89zm1.76 1.54l-0.44 -1.01 -1.55 0 -0.46 1.01 -0.66 0 1.89 -4.06 1.89 4.06 -0.67 0z"/>
   <path id="7" class="fil1" d="M23.22 6.83c-0.18,-0.15 -0.37,-0.27 -0.57,-0.34 -0.2,-0.08 -0.41,-0.12 -0.63,-0.12 -0.43,0 -0.78,0.14 -1.05,0.41 -0.26,0.28 -0.4,0.63 -0.4,1.07 0,0.42 0.13,0.77 0.39,1.04 0.26,0.27 0.59,0.41 0.99,0.41 0.23,0 0.45,-0.04 0.66,-0.12 0.21,-0.08 0.41,-0.21 0.6,-0.37l0 0.72c-0.17,0.12 -0.36,0.21 -0.56,0.27 -0.2,0.06 -0.42,0.09 -0.65,0.09 -0.3,0 -0.58,-0.05 -0.83,-0.15 -0.25,-0.09 -0.47,-0.24 -0.67,-0.43 -0.19,-0.18 -0.33,-0.4 -0.44,-0.66 -0.1,-0.25 -0.15,-0.52 -0.15,-0.81 0,-0.28 0.05,-0.55 0.15,-0.81 0.11,-0.25 0.25,-0.47 0.45,-0.66 0.19,-0.19 0.41,-0.34 0.67,-0.43 0.25,-0.1 0.52,-0.15 0.81,-0.15 0.23,0 0.45,0.03 0.65,0.1 0.21,0.06 0.41,0.17 0.61,0.3l-0.03 0.64z"/>
   <polygon id="8" class="fil1" points="25.27,6.42 25.27,9.79 24.63,9.79 24.63,6.42 23.59,6.42 23.59,5.88 26.3,5.88 26.3,6.42 "/>
   <polygon id="9" class="fil1" points="26.8,9.79 26.8,5.88 27.43,5.88 27.43,9.79 "/>
   <path id="10" class="fil1" d="M31.69 7.84c0,-0.2 -0.04,-0.38 -0.11,-0.56 -0.07,-0.18 -0.18,-0.34 -0.31,-0.48 -0.13,-0.13 -0.29,-0.24 -0.46,-0.31 -0.17,-0.08 -0.36,-0.11 -0.55,-0.11 -0.19,0 -0.37,0.03 -0.55,0.11 -0.17,0.07 -0.32,0.18 -0.46,0.31 -0.13,0.14 -0.24,0.3 -0.31,0.48 -0.07,0.17 -0.1,0.36 -0.1,0.56 0,0.2 0.03,0.39 0.1,0.56 0.07,0.18 0.18,0.34 0.31,0.47 0.14,0.14 0.29,0.25 0.46,0.32 0.18,0.07 0.36,0.11 0.55,0.11 0.19,0 0.37,-0.04 0.55,-0.11 0.17,-0.07 0.32,-0.18 0.46,-0.32 0.13,-0.13 0.24,-0.29 0.31,-0.47 0.07,-0.18 0.11,-0.36 0.11,-0.56zm0.66 0c0,0.28 -0.05,0.54 -0.16,0.79 -0.1,0.25 -0.25,0.47 -0.45,0.66 -0.2,0.2 -0.43,0.34 -0.68,0.45 -0.25,0.1 -0.52,0.15 -0.8,0.15 -0.28,0 -0.55,-0.05 -0.8,-0.15 -0.26,-0.11 -0.48,-0.26 -0.68,-0.45 -0.2,-0.19 -0.35,-0.41 -0.45,-0.66 -0.1,-0.24 -0.16,-0.51 -0.16,-0.79 0,-0.28 0.06,-0.54 0.16,-0.79 0.1,-0.25 0.25,-0.47 0.45,-0.66 0.2,-0.2 0.43,-0.34 0.68,-0.45 0.25,-0.1 0.52,-0.15 0.8,-0.15 0.28,0 0.55,0.05 0.8,0.15 0.25,0.11 0.48,0.25 0.68,0.45 0.2,0.19 0.35,0.42 0.45,0.67 0.11,0.24 0.16,0.51 0.16,0.78z"/>
   <path id="11" class="fil1" d="M33.08 9.79l0 -4.06 2.48 2.38c0.07,0.07 0.14,0.14 0.21,0.22 0.07,0.08 0.14,0.16 0.21,0.26l0 -2.71 0.59 0 0 4.06 -2.53 -2.43c-0.07,-0.07 -0.13,-0.14 -0.2,-0.21 -0.06,-0.07 -0.12,-0.15 -0.18,-0.23l0 2.72 -0.58 0z"/>
  </g>
 </g>
</svg>
