<?xml version="1.0" encoding="UTF-8"?>
<!DOCTYPE svg PUBLIC "-//W3C//DTD SVG 1.1//EN" "http://www.w3.org/Graphics/SVG/1.1/DTD/svg11.dtd">
<!-- Creator: CorelDRAW 2019 -->
<svg xmlns="http://www.w3.org/2000/svg" xml:space="preserve" width="1113px" height="769px" version="1.1" style="shape-rendering:geometricPrecision; text-rendering:geometricPrecision; image-rendering:optimizeQuality; fill-rule:evenodd; clip-rule:evenodd"
viewBox="0 0 185.99 128.46"
 xmlns:xlink="http://www.w3.org/1999/xlink"
 xmlns:xodm="http://www.corel.com/coreldraw/odm/2003">
 <defs>
  <style type="text/css">
   <![CDATA[
    .str1 {stroke:#EBECEC;stroke-width:0.39;stroke-miterlimit:22.9256}
    .str0 {stroke:#5B5B5B;stroke-width:0.39;stroke-miterlimit:22.9256}
    .fil0 {fill:#FEFEFE;fill-rule:nonzero}
    .fil6 {fill:#FEFEFE;fill-rule:nonzero}
    .fil1 {fill:#EBECEC;fill-rule:nonzero}
    .fil10 {fill:#B2B3B3;fill-rule:nonzero}
    .fil3 {fill:#FCD3A2;fill-rule:nonzero}
    .fil15 {fill:#E95060;fill-rule:nonzero}
    .fil4 {fill:#F6B780;fill-rule:nonzero}
    .fil16 {fill:#C73727;fill-rule:nonzero}
    .fil9 {fill:#CBE9FB;fill-rule:nonzero}
    .fil5 {fill:#8F503F;fill-rule:nonzero}
    .fil8 {fill:#874A3A;fill-rule:nonzero}
    .fil7 {fill:#523D38;fill-rule:nonzero}
    .fil13 {fill:#7CBC63;fill-rule:nonzero}
    .fil11 {fill:#575E65;fill-rule:nonzero}
    .fil2 {fill:#5A6E85;fill-rule:nonzero}
    .fil12 {fill:#4E525A;fill-rule:nonzero}
    .fil14 {fill:#468040;fill-rule:nonzero}
   ]]>
  </style>
 </defs>
 <g id="PowerClip_x0020_Contents">
  <metadata id="CorelCorpID_0Corel-Layer"/>
  <g id="_-2133126104">
   <path class="fil0" d="M98.69 71.03c-0.01,0 -0.01,0.03 0,0.03 0.02,0 0.02,-0.03 0,-0.03z"/>
   <path class="fil0" d="M45.72 80.56c-0.02,0 -0.02,0.03 0,0.03 0.01,0 0.01,-0.03 0,-0.03z"/>
   <path class="fil1" d="M115.21 19.21c-0.03,0.04 -0.07,0.08 -0.12,0.11l-1.84 1.01 1.84 -1.01c0.05,-0.03 0.09,-0.07 0.12,-0.11 0.02,-0.05 0.04,-0.1 0.04,-0.16 -0.01,-0.11 -0.07,-0.21 -0.17,-0.25l-1.29 -0.64 1.29 0.64c0.1,0.04 0.16,0.14 0.17,0.25 0,0.06 -0.02,0.11 -0.04,0.16zm1.17 -1.03l1.39 2.52 0 0 -1.39 -2.52c-0.04,-0.07 -0.05,-0.15 -0.03,-0.22 -0.02,0.07 -0.01,0.15 0.03,0.22zm3.15 -0.12l0 0 0.19 -0.22 -0.19 0.22zm2.47 -1.96c-0.01,-0.04 -0.03,-0.08 -0.05,-0.11 0.02,0.03 0.04,0.07 0.05,0.11l0.58 2.81 -0.58 -2.81zm-14.54 13.79c-1.24,1.1 -2.13,2.6 -2.61,4.26 0.48,-1.66 1.37,-3.16 2.61,-4.26zm4.22 -6.16c0.03,0.02 0.06,0.05 0.1,0.06 -0.04,-0.01 -0.07,-0.04 -0.1,-0.06l-2.1 -1.97 2.1 1.97zm-5.22 -1.59c0.04,0.05 0.08,0.08 0.13,0.1 0.05,0.02 0.1,0.02 0.16,0.02 -0.06,0 -0.11,0 -0.16,-0.02 -0.05,-0.02 -0.09,-0.05 -0.13,-0.1 -0.03,-0.04 -0.05,-0.09 -0.05,-0.14 0,0.05 0.02,0.1 0.05,0.14zm1.19 -2.9l-1.22 2.6 1.22 -2.6 -1.05 -1.99 1.05 1.99zm16.35 13.6c0.08,0.15 0.16,0.31 0.23,0.46 -0.07,-0.15 -0.15,-0.31 -0.23,-0.46zm0.43 0.94c0.05,0.13 0.1,0.27 0.15,0.41 -0.05,-0.14 -0.1,-0.28 -0.15,-0.41zm0.43 5.28c-0.45,2.43 -1.83,4.93 -4.08,6.44 2.25,-1.51 3.63,-4.01 4.08,-6.44 0.28,-1.45 0.26,-3.08 -0.21,-4.64 0.47,1.56 0.49,3.19 0.21,4.64zm-11.13 7.62c0.71,0.16 1.42,0.25 2.12,0.26 -0.7,-0.01 -1.41,-0.1 -2.12,-0.26 -3.56,-0.8 -6.1,-2.21 -7.6,-4.19 1.5,1.98 4.04,3.39 7.6,4.19zm-3.36 -18.46c-0.82,0.28 -1.59,0.68 -2.3,1.19 -0.2,0.14 -0.39,0.29 -0.57,0.45 0.18,-0.16 0.37,-0.31 0.57,-0.45 0.71,-0.51 1.48,-0.91 2.3,-1.19zm5.49 18.72c0.01,0 0.03,0 0.04,0 -0.01,0 -0.03,0 -0.04,0zm-3.81 -23.19c0.07,-0.04 0.11,-0.12 0.12,-0.2l0.04 -0.29 -0.04 0.29c-0.01,0.08 -0.05,0.16 -0.12,0.2zm-0.11 0.05c-0.02,0 -0.03,0 -0.04,0.01l0 0c0.01,-0.01 0.02,-0.01 0.04,-0.01zm4.81 -0.09c0.05,0.02 0.1,0.03 0.16,0.02l2.82 -0.54 2.13 1.93c0.03,0.03 0.06,0.05 0.1,0.06 -0.04,-0.01 -0.07,-0.03 -0.1,-0.06l-2.13 -1.93 -2.82 0.54c-0.06,0.01 -0.11,0 -0.16,-0.02 -0.04,-0.01 -0.07,-0.03 -0.1,-0.06 0.03,0.03 0.06,0.05 0.1,0.06zm5.6 1.23l0.36 -2.85 2.49 -1.43c0.04,-0.02 0.07,-0.05 0.09,-0.08 -0.02,0.03 -0.05,0.06 -0.09,0.08l-2.49 1.43 -0.36 2.85c-0.01,0.05 -0.03,0.1 -0.06,0.14 0.03,-0.04 0.05,-0.09 0.06,-0.14zm3 -4.55c0.01,0.04 0,0.07 -0.01,0.1 0.01,-0.03 0.02,-0.06 0.01,-0.1l0 0zm-20.61 14.14c-0.19,0.78 -0.29,1.58 -0.3,2.39 0.01,-0.81 0.11,-1.61 0.3,-2.39zm79.42 73.01c-1.97,-0.71 -48.2,-17.53 -50.44,-18.03 -0.07,-0.02 -0.15,-0.03 -0.23,-0.02 -0.38,0.02 -0.87,0.36 -1.43,0.93 -1.04,-0.79 -2.66,-1.83 -4,-1.82 0,0 0,0 0,0 -0.28,0.02 -0.59,0.18 -0.94,0.49 -1.01,-1.25 -2.99,-3.7 -5.42,-6.9 -1.27,-1.66 -2.12,-2.95 -2.81,-3.99 -1.25,-1.9 -2.01,-3.04 -3.75,-4.11 -1.41,-0.87 -3.06,-1.56 -4.66,-2.08 0.35,-1.4 0.7,-2.79 1.03,-4.13 7.75,1.47 14.8,2.76 16.87,3.1 1.71,0.28 2.94,0.38 3.98,0.31l0.01 0c2.38,-0.14 3.89,-1.19 5.03,-3.49 1.04,-2.08 4.3,-14.88 6.91,-25.17 1.71,-6.71 3.18,-12.5 3.66,-13.82 0.77,-2.19 1.83,-6.35 0.16,-9.58 -0.97,-1.87 -2.72,-3.18 -5.21,-3.88 -5.14,-1.45 -31.96,-8.2 -37.64,-8.85 -2.14,-0.25 -3.91,-0.39 -5.56,-0.29 -3.92,0.24 -6.26,1.94 -7.38,5.34 -1.84,5.63 -10.14,38.92 -10.7,42.91 -0.53,3.75 1.42,7.16 4.74,8.3 1.42,0.48 9.94,2.2 18.98,3.94 -0.44,1.73 -0.89,3.52 -1.35,5.33 -0.55,0.45 -1.03,0.97 -1.39,1.4 -0.66,-0.09 -1.37,-0.14 -2.01,-0.1 -0.89,0.06 -1.49,0.27 -1.84,0.66 -0.87,0.99 -1.35,2.13 -1.29,3.06 0.03,0.41 0.17,0.77 0.39,1.08 -0.84,0.34 -2.61,1.31 -2.89,3.32 -0.29,2.13 1.52,3.89 2.24,4.49 -0.48,0.47 -1.42,1.54 -1.35,2.66 0.08,1.11 0.9,2.23 1.27,2.69 -0.43,0.47 -1.39,1.71 -1.21,3.12 0.1,0.78 0.92,1.35 2.06,1.76 -0.78,3.22 -1.27,5.34 -1.28,5.67 -0.02,0.49 0.24,1.04 0.75,1.54 0.79,0.78 1.93,1.24 2.9,1.18 0.96,-0.06 1.71,-0.63 2.11,-1.6 0.21,-0.51 0.74,-2.39 1.47,-5.15 2.46,0.98 5.59,2.03 8.69,2.56 3.7,0.63 5.75,1.17 6.84,1.52 -0.41,0.95 -0.64,1.63 -0.62,1.87 0.07,0.66 1.87,1.48 3.86,2.18 -0.22,0.43 -0.36,0.71 -0.4,0.79 -0.04,0.1 -0.05,0.21 0,0.32 0.52,1.28 15.62,6.81 43.3,16.57 7,2.46 12.52,4.41 13.25,4.77 0.13,0.06 0.25,0.08 0.38,0.07 0.48,-0.03 1.75,-0.1 3.6,-10.47 0.9,-5.02 1.51,-10.08 1.51,-10.13 0.02,-0.14 -0.06,-0.27 -0.19,-0.32z"/>
   <path class="fil2" d="M112.57 65.83c-0.33,1.32 -0.67,2.69 -1.01,4.07 -1.25,-0.37 -2.45,-0.64 -3.45,-0.8 -0.56,-0.09 -1.15,0.12 -1.72,0.46 0.4,-1.57 0.8,-3.13 1.19,-4.69 1.66,0.32 3.34,0.65 4.99,0.96z"/>
   <path class="fil2" d="M100.19 94.41c1.01,0.29 2.18,0.48 3.29,0.59 0.47,0.21 0.99,0.43 1.55,0.65 -0.74,2.76 -1.27,4.65 -1.47,5.15 -0.32,0.77 -0.85,1.19 -1.6,1.23 -0.8,0.05 -1.78,-0.35 -2.45,-1.01 -0.38,-0.37 -0.59,-0.77 -0.57,-1.1 0.01,-0.29 0.48,-2.33 1.25,-5.51z"/>
   <path class="fil3" d="M99.26 89.69c1.82,0.52 8.03,1.82 8.98,2.02 0.12,0.25 0.31,1.11 -0.03,1.81 -0.32,0.69 -1.05,1.03 -2.2,1.03 -3.65,-0.02 -7.69,-0.85 -7.86,-2.15 -0.15,-1.22 0.78,-2.35 1.11,-2.71z"/>
   <path class="fil3" d="M100.02 76.63c0.56,0.23 1.21,0.49 1.92,0.77 0.34,0.62 0.87,1.07 1.56,1.29 0.59,0.18 1.28,0.19 1.98,0.05 2.1,0.78 3.92,1.44 4.16,1.52 0.19,0.12 1.85,1.18 1.53,2.65 -0.31,1.43 -1.76,2.18 -2.08,2.33 -2.65,-0.31 -8.94,-1.41 -9.66,-1.53 -0.35,-0.28 -2.51,-2.05 -2.22,-4.12 0.27,-1.98 2.36,-2.81 2.81,-2.96z"/>
   <path class="fil3" d="M99.4 84.3c0.98,0.17 7,1.22 9.6,1.53 0.34,0.32 2.01,2 1.49,3.71 -0.44,1.44 -1.55,1.53 -1.97,1.57 -0.05,0 -0.11,0.01 -0.17,0.02 -0.96,-0.2 -7.37,-1.54 -9.01,-2.03 -0.23,-0.27 -1.17,-1.42 -1.24,-2.48 -0.06,-0.89 0.84,-1.9 1.3,-2.32z"/>
   <path class="fil3" d="M102.28 71.98c0.48,-0.03 1.02,0 1.54,0.06 -0.01,0 -0.01,0.01 -0.02,0.02 -1.1,1.46 -2.11,3.39 -2.05,4.62 -0.57,-0.22 -1.1,-0.43 -1.55,-0.62 -0.29,-0.26 -0.46,-0.59 -0.49,-1 -0.05,-0.76 0.38,-1.76 1.14,-2.62 0.23,-0.25 0.72,-0.41 1.43,-0.46z"/>
   <path class="fil4" d="M106.41 78.45c0.22,-0.09 0.44,-0.19 0.65,-0.31 0.72,-0.42 1.12,-1.01 1.44,-1.49 0.46,-0.68 0.71,-1.06 1.56,-0.83 0.41,0.1 0.86,0.59 1.3,1.24 -0.36,1.56 -1.3,2.37 -1.63,2.61 -0.42,-0.15 -1.73,-0.63 -3.32,-1.22z"/>
   <path class="fil3" d="M108.01 69.69c2.26,0.35 5.83,1.34 8.46,2.96 1.62,1.01 2.31,2.05 3.56,3.93 0.7,1.05 1.56,2.35 2.84,4.03 2.47,3.24 4.46,5.72 5.46,6.95 -0.07,0.08 -0.14,0.16 -0.21,0.24l-0.27 -0.1 0.21 0.16c-0.01,0.01 -0.01,0.02 -0.02,0.03 -1.99,2.34 -5.18,8.16 -6.69,11.52 -1.13,-0.37 -3.23,-0.92 -6.98,-1.56 -3.28,-0.56 -6.58,-1.71 -9.08,-2.73 0.25,0.01 0.49,0.02 0.72,0.02 0.12,0 0.25,-0.01 0.36,-0.01 1.86,-0.12 2.39,-1.2 2.54,-1.83 0.14,-0.55 0.08,-1.2 -0.06,-1.64 1.12,-0.18 1.86,-0.83 2.2,-1.95 0.54,-1.78 -0.78,-3.43 -1.41,-4.09 0.62,-0.34 1.8,-1.17 2.11,-2.59 0.32,-1.49 -0.85,-2.58 -1.47,-3.05 0.42,-0.35 1.11,-1.08 1.51,-2.25 0.5,0.85 0.99,1.84 1.41,2.69 0.58,1.17 1.07,2.19 1.48,2.61 0.11,0.12 0.29,0.12 0.41,0.01 0.12,-0.11 0.13,-0.3 0.01,-0.42 -0.34,-0.36 -0.84,-1.38 -1.37,-2.46 -1.06,-2.15 -2.26,-4.58 -3.52,-4.91 -1.25,-0.33 -1.73,0.38 -2.2,1.07 -0.32,0.47 -0.65,0.96 -1.25,1.31 -1.01,0.58 -2.2,0.77 -3.08,0.49 -0.59,-0.18 -1.02,-0.56 -1.27,-1.11 -0.35,-0.75 0.47,-2.76 1.86,-4.6 1.36,-1.8 2.83,-2.87 3.74,-2.72z"/>
   <path class="fil0" d="M129.7 87.26c1.15,-0.02 2.62,0.92 3.59,1.66 -2.83,3.24 -7.04,11.32 -8.67,14.54 -1.95,-0.69 -3.44,-1.35 -3.54,-1.7 -0.04,-0.96 6.83,-14.39 8.62,-14.5z"/>
   <path class="fil1" d="M102.91 48.83c-0.7,-3.97 -10.15,-36.95 -12.18,-42.51 -1.23,-3.37 -3.63,-4.98 -7.56,-5.09 -1.65,-0.04 -3.41,0.16 -5.55,0.48 -5.65,0.85 -32.21,8.52 -37.31,10.15 -2.46,0.79 -4.16,2.16 -5.07,4.07 -1.55,3.28 -0.35,7.39 0.5,9.55 0.52,1.32 2.19,7.05 4.13,13.69 2.97,10.2 6.67,22.88 7.78,24.93 1.22,2.25 2.76,3.24 5.15,3.31l0 0c1.05,0.03 2.27,-0.11 3.97,-0.45 2.06,-0.41 9.06,-1.95 16.75,-3.69 0.38,1.34 0.77,2.71 1.17,4.1 -1.58,0.57 -3.2,1.32 -4.58,2.24 -1.7,1.13 -2.42,2.3 -3.6,4.23 -0.66,1.06 -1.47,2.38 -2.68,4.09 -2.32,3.28 -4.2,5.8 -5.17,7.08 -0.36,-0.3 -0.67,-0.44 -0.96,-0.45 0,0 0,0 0,0 -1.34,0.03 -2.92,1.13 -3.93,1.96 -0.58,-0.55 -1.08,-0.88 -1.47,-0.89 -0.08,0 -0.15,0.01 -0.22,0.03 -2.23,0.57 -47.85,18.99 -49.79,19.77 -0.13,0.05 -0.2,0.18 -0.18,0.32 0.01,0.05 0.79,5.09 1.86,10.07 2.21,10.3 3.48,10.33 3.96,10.35 0.13,0 0.25,-0.03 0.37,-0.09 0.72,-0.38 6.18,-2.52 13.08,-5.23 27.33,-10.71 42.23,-16.76 42.71,-18.06 0.04,-0.1 0.03,-0.22 -0.02,-0.31 -0.04,-0.08 -0.19,-0.36 -0.42,-0.78 1.96,-0.77 3.73,-1.65 3.78,-2.31 0.01,-0.24 -0.24,-0.92 -0.68,-1.85 1.07,-0.39 3.1,-1 6.77,-1.76 3.09,-0.64 6.18,-1.79 8.61,-2.85 0.82,2.72 1.42,4.59 1.64,5.09 0.43,0.96 1.2,1.5 2.17,1.53 0.97,0.02 2.09,-0.48 2.85,-1.28 0.49,-0.52 0.74,-1.08 0.7,-1.57 -0.02,-0.33 -0.59,-2.43 -1.48,-5.62 1.13,-0.45 1.93,-1.05 2,-1.83 0.13,-1.41 -0.87,-2.62 -1.31,-3.08 0.35,-0.47 1.13,-1.62 1.17,-2.73 0.03,-1.12 -0.95,-2.16 -1.44,-2.61 0.7,-0.63 2.45,-2.45 2.08,-4.56 -0.35,-2.01 -2.15,-2.91 -3,-3.23 0.21,-0.31 0.33,-0.68 0.35,-1.09 0.03,-0.93 -0.49,-2.05 -1.4,-3.01 -0.35,-0.37 -0.96,-0.57 -1.85,-0.59 -0.64,-0.02 -1.35,0.06 -2.01,0.16 -0.37,-0.41 -0.88,-0.92 -1.44,-1.35 -0.52,-1.79 -1.03,-3.56 -1.53,-5.28 8.98,-2.05 17.43,-4.06 18.83,-4.59 3.28,-1.25 5.11,-4.73 4.45,-8.46z"/>
   <path class="fil5" d="M135.17 88.14c0.02,0 0.04,0 0.06,0 2.12,0.48 46.6,16.65 50.15,17.94 -1.18,9.74 -3.18,19.77 -4.54,19.86 -0.02,0 -0.05,-0.01 -0.08,-0.02 -0.76,-0.37 -6.03,-2.23 -13.32,-4.8 -14.48,-5.11 -41.28,-14.56 -42.9,-16.18 2.71,-5.51 8.79,-16.69 10.63,-16.8z"/>
   <path class="fil6" d="M130.11 68.46c1.64,0.27 2.87,0.37 3.86,0.3l0 0c2.17,-0.13 3.49,-1.05 4.54,-3.16 1.01,-2.02 4.26,-14.79 6.87,-25.06 1.71,-6.72 3.19,-12.52 3.67,-13.87 0.74,-2.1 1.76,-6.07 0.19,-9.1 -0.89,-1.73 -2.52,-2.94 -4.84,-3.59 -5.14,-1.45 -31.89,-8.19 -37.55,-8.83 -2.11,-0.25 -3.85,-0.39 -5.45,-0.29 -3.7,0.23 -5.81,1.75 -6.86,4.94 -1.83,5.62 -10.12,38.82 -10.68,42.81 -0.48,3.46 1.3,6.61 4.35,7.65 2.96,1.01 36.9,7.38 41.9,8.2z"/>
   <path class="fil7" d="M88.21 60.26c-3.05,-1.04 -4.83,-4.19 -4.35,-7.65 0.56,-3.99 8.85,-37.19 10.68,-42.81 1.05,-3.19 3.16,-4.71 6.86,-4.94 1.6,-0.1 3.34,0.04 5.45,0.29 5.66,0.64 32.41,7.38 37.55,8.83 2.32,0.65 3.95,1.86 4.84,3.59 1.57,3.03 0.55,7 -0.19,9.1 -0.48,1.35 -1.96,7.15 -3.67,13.87 -2.61,10.27 -5.86,23.04 -6.87,25.06 -1.05,2.11 -2.37,3.03 -4.54,3.16l0 0c-0.99,0.07 -2.22,-0.03 -3.86,-0.3 -5,-0.82 -38.94,-7.19 -41.9,-8.2zm18.18 9.3c0.4,-1.57 0.8,-3.13 1.19,-4.69 1.66,0.32 3.34,0.65 4.99,0.96 -0.33,1.32 -0.67,2.69 -1.01,4.07 -1.25,-0.37 -2.45,-0.64 -3.45,-0.8 -0.56,-0.09 -1.15,0.12 -1.72,0.46zm18.15 35.38c2.71,-5.51 8.79,-16.69 10.63,-16.8 0.02,0 0.04,0 0.06,0 2.12,0.48 46.6,16.65 50.15,17.94 -1.18,9.74 -3.18,19.77 -4.54,19.86 -0.02,0 -0.05,-0.01 -0.08,-0.02 -0.76,-0.37 -6.03,-2.23 -13.32,-4.8 -14.48,-5.11 -41.28,-14.56 -42.9,-16.18zm-3.46 -3.18c-0.04,-0.96 6.83,-14.39 8.62,-14.5 1.15,-0.02 2.62,0.92 3.59,1.66 -2.83,3.24 -7.04,11.32 -8.67,14.54 -1.95,-0.69 -3.44,-1.35 -3.54,-1.7zm-13.07 -32.07c2.26,0.35 5.83,1.34 8.46,2.96 1.62,1.01 2.31,2.05 3.56,3.93 0.7,1.05 1.56,2.35 2.84,4.03 2.47,3.24 4.46,5.72 5.46,6.95 -0.07,0.08 -0.14,0.16 -0.21,0.24l-0.27 -0.1 0.21 0.16c-0.01,0.01 -0.01,0.02 -0.02,0.03 -1.99,2.34 -5.18,8.16 -6.69,11.52 -1.13,-0.37 -3.23,-0.92 -6.98,-1.56 -3.28,-0.56 -6.58,-1.71 -9.08,-2.73 0.25,0.01 0.49,0.02 0.72,0.02 0.12,0 0.25,-0.01 0.36,-0.01 1.86,-0.12 2.39,-1.2 2.54,-1.83 0.14,-0.55 0.08,-1.2 -0.06,-1.64 1.12,-0.18 1.86,-0.83 2.2,-1.95 0.54,-1.78 -0.78,-3.43 -1.41,-4.09 0.62,-0.34 1.8,-1.17 2.11,-2.59 0.32,-1.49 -0.85,-2.58 -1.47,-3.05 0.42,-0.35 1.11,-1.08 1.51,-2.25 0.5,0.85 0.99,1.84 1.41,2.69 0.58,1.17 1.07,2.19 1.48,2.61 0.11,0.12 0.29,0.12 0.41,0.01 0.12,-0.11 0.13,-0.3 0.01,-0.42 -0.34,-0.36 -0.84,-1.38 -1.37,-2.46 -1.06,-2.15 -2.26,-4.58 -3.52,-4.91 -1.25,-0.33 -1.73,0.38 -2.2,1.07 -0.32,0.47 -0.65,0.96 -1.25,1.31 -1.01,0.58 -2.2,0.77 -3.08,0.49 -0.59,-0.18 -1.02,-0.56 -1.27,-1.11 -0.35,-0.75 0.47,-2.76 1.86,-4.6 1.36,-1.8 2.83,-2.87 3.74,-2.72zm-8.3 5.37c-0.05,-0.76 0.38,-1.76 1.14,-2.62 0.23,-0.25 0.72,-0.41 1.43,-0.46 0.48,-0.03 1.02,0 1.54,0.06 -0.01,0 -0.01,0.01 -0.02,0.02 -1.1,1.46 -2.11,3.39 -2.05,4.62 -0.57,-0.22 -1.1,-0.43 -1.55,-0.62 -0.29,-0.26 -0.46,-0.59 -0.49,-1zm-1.61 11.56c-0.06,-0.89 0.84,-1.9 1.3,-2.32 0.98,0.17 7,1.22 9.6,1.53 0.34,0.32 2.01,2 1.49,3.71 -0.44,1.44 -1.55,1.53 -1.97,1.57 -0.05,0 -0.11,0.01 -0.17,0.02 -0.96,-0.2 -7.37,-1.54 -9.01,-2.03 -0.23,-0.27 -1.17,-1.42 -1.24,-2.48zm8.31 -8.17c0.22,-0.09 0.44,-0.19 0.65,-0.31 0.72,-0.42 1.12,-1.01 1.44,-1.49 0.46,-0.68 0.71,-1.06 1.56,-0.83 0.41,0.1 0.86,0.59 1.3,1.24 -0.36,1.56 -1.3,2.37 -1.63,2.61 -0.42,-0.15 -1.73,-0.63 -3.32,-1.22zm-6.9 22.57c-0.38,-0.37 -0.59,-0.77 -0.57,-1.1 0.01,-0.29 0.48,-2.33 1.25,-5.51 1.01,0.29 2.18,0.48 3.29,0.59 0.47,0.21 0.99,0.43 1.55,0.65 -0.74,2.76 -1.27,4.65 -1.47,5.15 -0.32,0.77 -0.85,1.19 -1.6,1.23 -0.8,0.05 -1.78,-0.35 -2.45,-1.01zm-0.25 -11.33c1.82,0.52 8.03,1.82 8.98,2.02 0.12,0.25 0.31,1.11 -0.03,1.81 -0.32,0.69 -1.05,1.03 -2.2,1.03 -3.65,-0.02 -7.69,-0.85 -7.86,-2.15 -0.15,-1.22 0.78,-2.35 1.11,-2.71zm-2.05 -10.1c0.27,-1.98 2.36,-2.81 2.81,-2.96 0.56,0.23 1.21,0.49 1.92,0.77 0.34,0.62 0.87,1.07 1.56,1.29 0.59,0.18 1.28,0.19 1.98,0.05 2.1,0.78 3.92,1.44 4.16,1.52 0.19,0.12 1.85,1.18 1.53,2.65 -0.31,1.43 -1.76,2.18 -2.08,2.33 -2.65,-0.31 -8.94,-1.41 -9.66,-1.53 -0.35,-0.28 -2.51,-2.05 -2.22,-4.12zm-9.19 -18.77c1.42,0.48 9.93,2.2 18.98,3.94 -0.44,1.73 -0.89,3.52 -1.35,5.33 -0.55,0.45 -1.04,0.98 -1.39,1.4 -0.66,-0.08 -1.38,-0.13 -2.02,-0.1 -0.89,0.06 -1.49,0.27 -1.83,0.66 -0.87,0.99 -1.35,2.13 -1.29,3.06 0.03,0.41 0.16,0.77 0.39,1.08 -0.84,0.35 -2.61,1.31 -2.89,3.32 -0.3,2.13 1.52,3.89 2.24,4.49 -0.48,0.47 -1.42,1.55 -1.35,2.66 0.07,1.11 0.89,2.23 1.27,2.69 -0.43,0.47 -1.39,1.72 -1.21,3.12 0.1,0.78 0.92,1.35 2.06,1.76 -0.78,3.22 -1.27,5.34 -1.28,5.67 -0.03,0.49 0.24,1.04 0.75,1.54 0.79,0.78 1.92,1.24 2.89,1.18 0.97,-0.06 1.72,-0.62 2.12,-1.6 0.21,-0.51 0.74,-2.39 1.47,-5.15 2.46,0.98 5.58,2.03 8.69,2.56 3.7,0.63 5.75,1.17 6.84,1.52 -0.41,0.95 -0.65,1.63 -0.62,1.87 0.07,0.66 1.87,1.48 3.86,2.18 -0.22,0.43 -0.36,0.71 -0.4,0.79 -0.05,0.1 -0.05,0.21 -0.01,0.32 0.53,1.28 15.63,6.81 43.31,16.57 6.99,2.47 12.52,4.41 13.25,4.77 0.12,0.06 0.25,0.08 0.38,0.07 0.48,-0.02 1.75,-0.1 3.6,-10.47 0.9,-5.02 1.5,-10.08 1.51,-10.13 0.02,-0.14 -0.06,-0.27 -0.19,-0.31 -1.97,-0.72 -48.2,-17.54 -50.44,-18.04 -0.08,-0.02 -0.15,-0.02 -0.23,-0.02 -0.39,0.02 -0.88,0.36 -1.43,0.93 -1.04,-0.79 -2.66,-1.83 -4,-1.81 0,0 0,0 0,0 -0.29,0.01 -0.59,0.17 -0.95,0.48 -1,-1.24 -2.98,-3.7 -5.41,-6.9 -1.27,-1.66 -2.12,-2.95 -2.81,-3.99 -1.26,-1.89 -2.01,-3.04 -3.75,-4.11 -1.41,-0.87 -3.06,-1.56 -4.66,-2.07 0.35,-1.41 0.7,-2.79 1.03,-4.14 7.75,1.47 14.79,2.76 16.86,3.1 1.72,0.28 2.95,0.38 3.99,0.31l0 0c2.39,-0.14 3.9,-1.19 5.04,-3.48 1.03,-2.08 4.29,-14.89 6.91,-25.18 1.71,-6.71 3.18,-12.49 3.65,-13.82 0.78,-2.19 1.83,-6.35 0.17,-9.57 -0.97,-1.88 -2.73,-3.19 -5.21,-3.89 -5.15,-1.45 -31.96,-8.2 -37.64,-8.85 -2.15,-0.25 -3.91,-0.39 -5.56,-0.29 -3.92,0.24 -6.27,1.94 -7.38,5.34 -1.84,5.63 -10.14,38.92 -10.7,42.91 -0.53,3.75 1.42,7.17 4.74,8.3z"/>
   <path class="fil8" d="M177.75 103.31c3.98,1.44 6.83,2.48 7.63,2.77 -1.18,9.74 -3.18,19.77 -4.54,19.86 -0.02,0 -0.05,-0.01 -0.08,-0.02 -0.76,-0.37 -6.03,-2.23 -13.32,-4.8 -14.48,-5.11 -41.28,-14.56 -42.9,-16.18 0.85,-1.74 2.05,-4.04 3.33,-6.38 16.19,4.41 33.15,6.03 49.88,4.75z"/>
   <path class="fil9" d="M124.62 103.46c-1.95,-0.69 -3.44,-1.35 -3.54,-1.7 -0.02,-0.41 1.21,-3.07 2.77,-6 1.3,0.62 2.64,1.15 4.01,1.58 -1.35,2.42 -2.54,4.73 -3.24,6.12z"/>
   <path class="fil4" d="M113.73 80.16c-1.06,-2.15 -2.26,-4.58 -3.52,-4.91 -1.25,-0.33 -1.73,0.38 -2.2,1.07 -0.32,0.47 -0.65,0.96 -1.25,1.31 -0.63,0.36 -1.34,0.58 -1.99,0.61 0.03,-0.03 0.07,-0.06 0.1,-0.1 1.14,-1.3 1.64,-3.27 3.22,-3.96 2.14,-0.94 4.32,1.15 5.73,3.02 1.85,2.44 3.8,5.58 2.52,8.37 -0.36,0.76 -0.93,1.41 -1.28,2.18 -1.15,2.54 0.57,5.64 3.01,6.99 1.51,0.83 3.2,1.17 4.93,1.31 -0.64,1.23 -1.22,2.4 -1.65,3.36 -1.13,-0.37 -3.23,-0.92 -6.98,-1.56 -3.28,-0.56 -6.58,-1.71 -9.08,-2.73 0.25,0.01 0.49,0.02 0.72,0.02 0.12,0 0.25,-0.01 0.36,-0.01 1.86,-0.12 2.39,-1.2 2.54,-1.83 0.14,-0.55 0.08,-1.2 -0.06,-1.64 1.12,-0.18 1.86,-0.83 2.2,-1.95 0.54,-1.78 -0.78,-3.43 -1.41,-4.09 0.62,-0.34 1.8,-1.17 2.11,-2.59 0.32,-1.49 -0.85,-2.58 -1.47,-3.05 0.42,-0.35 1.11,-1.08 1.51,-2.25 0.5,0.85 0.99,1.84 1.41,2.69 0.58,1.17 1.07,2.19 1.48,2.61 0.11,0.12 0.29,0.12 0.41,0.01 0.12,-0.11 0.13,-0.3 0.01,-0.42 -0.34,-0.36 -0.84,-1.38 -1.37,-2.46z"/>
   <path class="fil4" d="M106.28 82.71c0.83,-0.12 1.7,-0.32 2.31,-0.9 0.46,-0.44 0.68,-1.17 0.5,-1.75 0.29,0.11 0.48,0.18 0.55,0.2 0.19,0.12 1.85,1.18 1.53,2.65 -0.31,1.43 -1.76,2.18 -2.08,2.33 -2.65,-0.31 -8.94,-1.41 -9.66,-1.53 -0.18,-0.14 -0.83,-0.68 -1.39,-1.45 2.68,0.69 5.5,0.85 8.24,0.45z"/>
   <path class="fil4" d="M98.39 87.65c1.87,0.37 3.77,0.58 5.67,0.63 1.14,0.03 2.32,-0.02 3.33,-0.53 0.77,-0.38 1.41,-1.11 1.6,-1.93 0,0.01 0.01,0.01 0.01,0.01 0.34,0.32 2.01,2 1.49,3.71 -0.44,1.44 -1.55,1.53 -1.97,1.57 -0.05,0 -0.11,0.01 -0.17,0.02 -0.96,-0.2 -7.37,-1.54 -9.01,-2.03 -0.15,-0.18 -0.63,-0.77 -0.95,-1.45z"/>
   <path class="fil4" d="M99.53 93.56c1.91,0.14 3.86,-0.09 5.69,-0.68 0.73,-0.23 1.56,-0.65 1.68,-1.42l0.05 -0.02c0.62,0.13 1.08,0.23 1.29,0.27 0.12,0.25 0.31,1.11 -0.03,1.81 -0.32,0.69 -1.05,1.03 -2.2,1.03 -2.39,-0.01 -4.96,-0.38 -6.48,-0.99z"/>
   <path class="fil10" d="M110.01 49.45c0.94,-0.01 1.82,0.34 2.72,0.58 1.13,0.3 2.29,0.53 3.41,0.89 0.23,0.08 0.24,0.45 -0.04,0.46 -1.05,0.03 -2.11,-0.1 -3.16,-0.25 -1.03,-0.14 -2.19,-0.21 -3.12,-0.72 -0.43,-0.23 -0.34,-0.96 0.19,-0.96z"/>
   <path class="fil10" d="M100.72 49.85c1.82,0.18 3.65,0.93 5.42,1.4 1.96,0.52 3.94,1.02 5.91,1.51 3.95,0.98 7.99,1.65 11.91,2.71 0.19,0.05 0.2,0.38 -0.03,0.37 -3.89,-0.21 -7.81,-1.07 -11.61,-1.88 -1.99,-0.42 -3.97,-0.92 -5.94,-1.43 -1.94,-0.51 -4.17,-0.92 -5.94,-1.87 -0.46,-0.25 -0.19,-0.85 0.28,-0.81z"/>
   <path class="fil10" d="M99.69 53.38c1.82,0.18 3.66,0.93 5.42,1.4 1.97,0.52 3.94,1.02 5.92,1.51 3.94,0.98 7.98,1.65 11.9,2.71 0.2,0.05 0.2,0.38 -0.02,0.37 -3.9,-0.21 -7.81,-1.07 -11.62,-1.88 -1.99,-0.42 -3.96,-0.92 -5.93,-1.43 -1.94,-0.51 -4.18,-0.91 -5.95,-1.87 -0.45,-0.24 -0.19,-0.85 0.28,-0.81z"/>
   <path class="fil7" d="M120.47 31.68c-0.23,0.6 -0.5,1.19 -0.58,1.83 -0.01,0.08 -0.01,0.16 0,0.23 0,0.01 0,0.02 0,0.03 -0.08,0.76 0.89,1.07 1.39,0.69 0.19,-0.07 0.36,-0.2 0.48,-0.39 0.32,-0.54 0.45,-1.21 0.62,-1.81 0.36,-1.23 -1.5,-1.79 -1.91,-0.58z"/>
   <path class="fil7" d="M111.37 34.84c-0.02,-0.01 -0.02,0.03 0,0.03 0.03,0.01 0.03,-0.03 0,-0.03z"/>
   <path class="fil2" d="M72 61.91c0.37,1.32 0.76,2.67 1.15,4.04 1.23,-0.42 2.42,-0.73 3.42,-0.92 0.55,-0.11 1.15,0.08 1.72,0.4 -0.45,-1.55 -0.9,-3.1 -1.34,-4.64 -1.65,0.37 -3.32,0.75 -4.95,1.12z"/>
   <path class="fil2" d="M85.35 90.05c-0.99,0.32 -2.16,0.55 -3.27,0.7 -0.46,0.23 -0.97,0.46 -1.52,0.71 0.83,2.73 1.43,4.6 1.65,5.09 0.34,0.76 0.89,1.16 1.64,1.18 0.8,0.02 1.77,-0.42 2.41,-1.1 0.37,-0.38 0.56,-0.79 0.54,-1.11 -0.03,-0.3 -0.57,-2.32 -1.45,-5.47z"/>
   <path class="fil3" d="M86.12 85.3c-1.81,0.59 -7.96,2.1 -8.91,2.33 -0.1,0.25 -0.26,1.12 0.09,1.81 0.35,0.67 1.09,0.99 2.24,0.95 3.65,-0.15 7.66,-1.11 7.78,-2.43 0.11,-1.21 -0.86,-2.31 -1.2,-2.66z"/>
   <path class="fil3" d="M84.91 72.27c-0.55,0.25 -1.2,0.53 -1.9,0.84 -0.31,0.63 -0.82,1.1 -1.51,1.34 -0.58,0.21 -1.27,0.24 -1.97,0.12 -2.08,0.85 -3.87,1.57 -4.11,1.67 -0.19,0.12 -1.8,1.24 -1.44,2.69 0.36,1.43 1.84,2.13 2.17,2.26 2.63,-0.4 8.87,-1.71 9.59,-1.86 0.34,-0.29 2.44,-2.14 2.08,-4.19 -0.34,-1.98 -2.45,-2.73 -2.91,-2.87z"/>
   <path class="fil3" d="M85.79 79.92c-0.97,0.2 -6.95,1.46 -9.54,1.86 -0.33,0.33 -1.93,2.07 -1.35,3.76 0.48,1.42 1.6,1.48 2.02,1.5 0.05,0 0.1,0 0.16,0.02 0.96,-0.24 7.32,-1.8 8.94,-2.35 0.22,-0.27 1.12,-1.46 1.15,-2.52 0.03,-0.89 -0.9,-1.87 -1.38,-2.27z"/>
   <path class="fil3" d="M82.49 67.71c-0.48,-0.01 -1.02,0.03 -1.54,0.1 0.01,0.01 0.02,0.02 0.02,0.02 1.16,1.43 2.22,3.32 2.21,4.56 0.56,-0.25 1.08,-0.47 1.53,-0.68 0.28,-0.27 0.44,-0.61 0.45,-1.01 0.03,-0.76 -0.44,-1.75 -1.23,-2.58 -0.24,-0.25 -0.73,-0.39 -1.44,-0.41z"/>
   <path class="fil4" d="M78.59 74.31c-0.22,-0.08 -0.45,-0.17 -0.66,-0.29 -0.73,-0.39 -1.16,-0.97 -1.49,-1.43 -0.49,-0.67 -0.76,-1.03 -1.6,-0.78 -0.4,0.12 -0.83,0.62 -1.25,1.29 0.41,1.54 1.38,2.32 1.72,2.55 0.41,-0.17 1.71,-0.69 3.28,-1.34z"/>
   <path class="fil3" d="M76.68 65.61c-2.25,0.43 -5.78,1.55 -8.35,3.26 -1.59,1.06 -2.24,2.12 -3.43,4.05 -0.65,1.07 -1.47,2.4 -2.69,4.12 -2.35,3.32 -4.26,5.88 -5.22,7.14 0.08,0.07 0.15,0.15 0.22,0.23l0.27 -0.11 -0.21 0.17c0.01,0.01 0.02,0.02 0.03,0.02 2.06,2.28 5.45,7.99 7.08,11.29 1.12,-0.41 3.19,-1.03 6.92,-1.8 3.26,-0.68 6.52,-1.94 8.99,-3.04 -0.26,0.02 -0.5,0.03 -0.72,0.04 -0.13,0 -0.25,0 -0.37,0 -1.86,-0.05 -2.43,-1.11 -2.6,-1.74 -0.16,-0.54 -0.13,-1.2 0,-1.64 -1.12,-0.14 -1.88,-0.77 -2.26,-1.87 -0.61,-1.76 0.66,-3.45 1.27,-4.13 -0.64,-0.33 -1.85,-1.12 -2.2,-2.52 -0.37,-1.48 0.76,-2.61 1.36,-3.1 -0.43,-0.34 -1.15,-1.04 -1.58,-2.2 -0.48,0.87 -0.93,1.88 -1.32,2.74 -0.54,1.19 -1,2.22 -1.39,2.66 -0.1,0.12 -0.29,0.13 -0.41,0.02 -0.13,-0.1 -0.14,-0.29 -0.03,-0.41 0.33,-0.37 0.8,-1.41 1.29,-2.51 0.98,-2.19 2.1,-4.66 3.34,-5.04 1.24,-0.37 1.75,0.33 2.24,1 0.34,0.46 0.68,0.93 1.3,1.26 1.03,0.55 2.22,0.7 3.1,0.39 0.58,-0.2 0.99,-0.59 1.23,-1.16 0.31,-0.75 -0.58,-2.74 -2.03,-4.52 -1.42,-1.76 -2.93,-2.78 -3.83,-2.6z"/>
   <path class="fil0" d="M55.61 83.92c-1.14,0.03 -2.58,1.02 -3.53,1.79 2.94,3.14 7.43,11.07 9.17,14.23 1.93,-0.75 3.4,-1.47 3.48,-1.82 0,-0.96 -7.32,-14.15 -9.12,-14.2z"/>
   <path class="fil11" d="M50.18 84.99c-0.02,0 -0.04,0 -0.06,0.01 -2.11,0.55 -46,18.25 -49.5,19.66 1.51,9.69 3.86,19.65 5.22,19.69 0.03,0 0.05,-0.01 0.08,-0.03 0.75,-0.39 5.95,-2.43 13.14,-5.25 14.31,-5.6 40.76,-15.97 42.32,-17.66 -2.9,-5.41 -9.36,-16.37 -11.2,-16.42z"/>
   <path class="fil6 str0" d="M96.14 55.51c3.01,-1.15 4.69,-4.36 4.08,-7.8 -0.69,-3.96 -10.12,-36.86 -12.15,-42.42 -1.15,-3.15 -3.32,-4.59 -7.02,-4.69 -1.61,-0.05 -3.34,0.15 -5.44,0.47 -5.63,0.84 -32.14,8.5 -37.22,10.13 -2.3,0.73 -3.88,1.99 -4.72,3.75 -1.46,3.08 -0.3,7.02 0.51,9.09 0.53,1.34 2.21,7.08 4.15,13.74 2.96,10.16 6.65,22.82 7.73,24.81 1.12,2.07 2.47,2.94 4.65,3l0 0c0.99,0.02 2.21,-0.12 3.84,-0.44 4.97,-0.99 38.67,-8.53 41.59,-9.64z"/>
   <path class="fil6" d="M47.73 27.47c-0.05,0.09 -0.15,0.15 -0.26,0.15 0,0 0,0 0,0l-2.88 -0.11 -1.8 2.24c-0.06,0.07 -0.15,0.11 -0.24,0.11 -0.02,0 -0.04,-0.01 -0.05,-0.01 -0.11,-0.02 -0.2,-0.1 -0.23,-0.21l-0.79 -2.76 -2.68 -1.03c-0.1,-0.04 -0.18,-0.13 -0.19,-0.24 -0.01,-0.11 0.04,-0.22 0.13,-0.28l2.39 -1.61 0.14 -2.87c0.01,-0.11 0.08,-0.2 0.18,-0.25 0.1,-0.05 0.21,-0.03 0.3,0.04l2.26 1.77 2.78 -0.75c0.11,-0.03 0.22,0.01 0.29,0.09 0.08,0.08 0.1,0.2 0.06,0.3l-0.98 2.7 1.56 2.41c0.06,0.09 0.07,0.21 0.01,0.31z"/>
   <path class="fil6" d="M76.37 12.09l2.71 -0.97 0.85 -2.74c0.03,-0.11 0.12,-0.19 0.23,-0.21 0.11,-0.02 0.22,0.03 0.29,0.11l1.75 2.28 2.88 -0.04c0.11,-0.01 0.21,0.06 0.26,0.16 0.05,0.09 0.05,0.21 -0.01,0.3l-1.63 2.38 0.93 2.72c0.03,0.1 0.01,0.22 -0.07,0.3 -0.07,0.08 -0.19,0.11 -0.29,0.08l-2.76 -0.81 -2.3 1.72c-0.06,0.04 -0.12,0.06 -0.19,0.06 -0.04,0 -0.08,-0.01 -0.12,-0.03 -0.1,-0.05 -0.16,-0.15 -0.17,-0.26l-0.08 -2.87 -2.35 -1.66c-0.09,-0.06 -0.14,-0.17 -0.12,-0.28 0.01,-0.11 0.09,-0.2 0.19,-0.24z"/>
   <path class="fil6" d="M66.15 13.11l2.54 -1.35 0.44 -2.84c0.02,-0.11 0.09,-0.2 0.2,-0.23 0.1,-0.04 0.22,-0.01 0.3,0.07l2.07 1.99 2.84 -0.46c0.1,-0.01 0.21,0.03 0.28,0.12 0.06,0.09 0.08,0.21 0.03,0.31l-1.26 2.58 1.31 2.56c0.05,0.1 0.04,0.21 -0.02,0.3 -0.07,0.09 -0.17,0.14 -0.28,0.12l-2.85 -0.39 -2.03 2.03c-0.06,0.06 -0.13,0.09 -0.21,0.09 -0.03,0 -0.06,0 -0.08,-0.01 -0.11,-0.04 -0.19,-0.12 -0.21,-0.23l-0.5 -2.83 -2.56 -1.3c-0.1,-0.05 -0.16,-0.15 -0.16,-0.26 -0.01,-0.11 0.05,-0.21 0.15,-0.27z"/>
   <path class="fil6" d="M55.94 15.07c0,-0.11 0.06,-0.22 0.16,-0.27l2.56 -1.31 0.49 -2.83c0.01,-0.11 0.09,-0.2 0.2,-0.23 0.1,-0.04 0.22,-0.01 0.3,0.07l2.03 2.03 2.85 -0.41c0.11,-0.02 0.22,0.03 0.28,0.12 0.06,0.09 0.07,0.2 0.02,0.3l-1.3 2.57 1.28 2.57c0.04,0.1 0.03,0.22 -0.03,0.31 -0.07,0.09 -0.17,0.13 -0.28,0.12l-2.84 -0.45 -2.06 2.01c-0.06,0.06 -0.14,0.09 -0.22,0.08 -0.03,0 -0.05,0 -0.08,-0.01 -0.11,-0.04 -0.18,-0.13 -0.2,-0.24l-0.46 -2.83 -2.54 -1.34c-0.1,-0.05 -0.16,-0.15 -0.16,-0.26z"/>
   <path class="fil6" d="M65.64 41.87c-5.1,-0.14 -8.27,-4.14 -9.14,-8.04 -1.01,-4.5 0.89,-8.7 4.85,-10.7 2.42,-1.22 4.91,-1.83 7.2,-1.77 1.97,0.05 3.76,0.6 5.31,1.63 3.63,2.41 5.15,7.73 3.46,12.1 -1.18,3.06 -4.11,5.22 -8.7,6.42 -1.01,0.26 -2.02,0.38 -2.98,0.36 0,0 0,0 0,0z"/>
   <path class="fil7" d="M54.55 65.15c-1.63,0.32 -2.85,0.46 -3.84,0.44l0 0c-2.18,-0.06 -3.53,-0.93 -4.65,-3 -1.08,-1.99 -4.77,-14.65 -7.73,-24.81 -1.94,-6.66 -3.62,-12.4 -4.15,-13.74 -0.81,-2.07 -1.97,-6.01 -0.51,-9.09 0.84,-1.76 2.42,-3.02 4.72,-3.75 5.08,-1.63 31.59,-9.29 37.22,-10.13 2.1,-0.32 3.83,-0.52 5.44,-0.47 3.7,0.1 5.87,1.54 7.02,4.69 2.03,5.56 11.46,38.46 12.15,42.42 0.61,3.44 -1.07,6.65 -4.08,7.8 -2.92,1.11 -36.62,8.65 -41.59,9.64zm22.02 -0.12c-1,0.19 -2.19,0.5 -3.42,0.92 -0.39,-1.37 -0.78,-2.72 -1.15,-4.04 1.63,-0.37 3.3,-0.75 4.95,-1.12 0.44,1.54 0.89,3.09 1.34,4.64 -0.57,-0.32 -1.17,-0.51 -1.72,-0.4zm-57.51 54.04c-7.19,2.82 -12.39,4.86 -13.14,5.25 -0.03,0.02 -0.05,0.03 -0.08,0.03 -1.36,-0.04 -3.71,-10 -5.22,-19.69 3.5,-1.41 47.39,-19.11 49.5,-19.66 0.02,-0.01 0.04,-0.01 0.06,-0.01 1.84,0.05 8.3,11.01 11.2,16.42 -1.56,1.69 -28.01,12.06 -42.32,17.66zm42.19 -19.13c-1.74,-3.16 -6.23,-11.09 -9.17,-14.23 0.95,-0.77 2.39,-1.76 3.53,-1.79 1.8,0.05 9.12,13.24 9.12,14.2 -0.08,0.35 -1.55,1.07 -3.48,1.82zm19.26 -31.73c1.45,1.78 2.34,3.77 2.03,4.52 -0.24,0.57 -0.65,0.96 -1.23,1.16 -0.88,0.31 -2.07,0.16 -3.1,-0.39 -0.62,-0.33 -0.96,-0.8 -1.3,-1.26 -0.49,-0.67 -1,-1.37 -2.24,-1 -1.24,0.38 -2.36,2.85 -3.34,5.04 -0.49,1.1 -0.96,2.14 -1.29,2.51 -0.11,0.12 -0.1,0.31 0.03,0.41 0.12,0.11 0.31,0.1 0.41,-0.02 0.39,-0.44 0.85,-1.47 1.39,-2.66 0.39,-0.86 0.84,-1.87 1.32,-2.74 0.43,1.16 1.15,1.86 1.58,2.2 -0.6,0.49 -1.73,1.62 -1.36,3.1 0.35,1.4 1.56,2.19 2.2,2.52 -0.61,0.68 -1.88,2.37 -1.27,4.13 0.38,1.1 1.14,1.73 2.26,1.87 -0.13,0.44 -0.16,1.1 0,1.64 0.17,0.63 0.74,1.69 2.6,1.74 0.12,0 0.24,0 0.37,0 0.22,-0.01 0.46,-0.02 0.72,-0.04 -2.47,1.1 -5.73,2.36 -8.99,3.04 -3.73,0.77 -5.8,1.39 -6.92,1.8 -1.63,-3.3 -5.02,-9.01 -7.08,-11.29 -0.01,0 -0.02,-0.01 -0.03,-0.02l0.21 -0.17 -0.27 0.11c-0.07,-0.08 -0.14,-0.16 -0.22,-0.23 0.96,-1.26 2.87,-3.82 5.22,-7.14 1.22,-1.72 2.04,-3.05 2.69,-4.12 1.19,-1.93 1.84,-2.99 3.43,-4.05 2.57,-1.71 6.1,-2.83 8.35,-3.26 0.9,-0.18 2.41,0.84 3.83,2.6zm4.2 3.5c-0.45,0.21 -0.97,0.43 -1.53,0.68 0.01,-1.24 -1.05,-3.13 -2.21,-4.56 0,0 -0.01,-0.01 -0.02,-0.02 0.52,-0.07 1.06,-0.11 1.54,-0.1 0.71,0.02 1.2,0.16 1.44,0.41 0.79,0.83 1.26,1.82 1.23,2.58 -0.01,0.4 -0.17,0.74 -0.45,1.01zm1.31 13c-1.62,0.55 -7.98,2.11 -8.94,2.35 -0.06,-0.02 -0.11,-0.02 -0.16,-0.02 -0.42,-0.02 -1.54,-0.08 -2.02,-1.5 -0.58,-1.69 1.02,-3.43 1.35,-3.76 2.59,-0.4 8.57,-1.66 9.54,-1.86 0.48,0.4 1.41,1.38 1.38,2.27 -0.03,1.06 -0.93,2.25 -1.15,2.52zm-10.71 -9.06c-0.34,-0.23 -1.31,-1.01 -1.72,-2.55 0.42,-0.67 0.85,-1.17 1.25,-1.29 0.84,-0.25 1.11,0.11 1.6,0.78 0.33,0.46 0.76,1.04 1.49,1.43 0.21,0.12 0.44,0.21 0.66,0.29 -1.57,0.65 -2.87,1.17 -3.28,1.34zm8.54 22.08c-0.75,-0.02 -1.3,-0.42 -1.64,-1.18 -0.22,-0.49 -0.82,-2.36 -1.65,-5.09 0.55,-0.25 1.06,-0.48 1.52,-0.71 1.11,-0.15 2.28,-0.38 3.27,-0.7 0.88,3.15 1.42,5.17 1.45,5.47 0.02,0.32 -0.17,0.73 -0.54,1.11 -0.64,0.68 -1.61,1.12 -2.41,1.1zm3.47 -9.77c-0.12,1.32 -4.13,2.28 -7.78,2.43 -1.15,0.04 -1.89,-0.28 -2.24,-0.95 -0.35,-0.69 -0.19,-1.56 -0.09,-1.81 0.95,-0.23 7.1,-1.74 8.91,-2.33 0.34,0.35 1.31,1.45 1.2,2.66zm-1.58 -8.63c-0.72,0.15 -6.96,1.46 -9.59,1.86 -0.33,-0.13 -1.81,-0.83 -2.17,-2.26 -0.36,-1.45 1.25,-2.57 1.44,-2.69 0.24,-0.1 2.03,-0.82 4.11,-1.67 0.7,0.12 1.39,0.09 1.97,-0.12 0.69,-0.24 1.2,-0.71 1.51,-1.34 0.7,-0.31 1.35,-0.59 1.9,-0.84 0.46,0.14 2.57,0.89 2.91,2.87 0.36,2.05 -1.74,3.9 -2.08,4.19zm15.07 -31.73c-0.7,-3.97 -10.15,-36.95 -12.19,-42.51 -1.23,-3.36 -3.63,-4.98 -7.55,-5.08 -1.65,-0.05 -3.42,0.16 -5.55,0.48 -5.66,0.84 -32.22,8.51 -37.31,10.14 -2.46,0.79 -4.17,2.16 -5.07,4.07 -1.56,3.28 -0.36,7.39 0.49,9.56 0.52,1.31 2.19,7.04 4.13,13.68 2.97,10.2 6.67,22.88 7.78,24.93 1.22,2.25 2.76,3.24 5.15,3.31l0 0c1.05,0.03 2.28,-0.11 3.98,-0.45 2.06,-0.41 9.05,-1.95 16.75,-3.69 0.38,1.34 0.77,2.71 1.17,4.1 -1.58,0.57 -3.2,1.32 -4.59,2.24 -1.69,1.13 -2.41,2.3 -3.6,4.23 -0.65,1.06 -1.46,2.38 -2.67,4.09 -2.32,3.28 -4.21,5.8 -5.17,7.08 -0.37,-0.3 -0.68,-0.44 -0.97,-0.45 0,0 0,0 0,0 -1.33,0.03 -2.91,1.13 -3.93,1.96 -0.57,-0.55 -1.08,-0.88 -1.46,-0.89 -0.08,0 -0.16,0.01 -0.23,0.03 -2.22,0.58 -47.84,18.99 -49.79,19.77 -0.12,0.05 -0.2,0.18 -0.18,0.32 0.01,0.05 0.79,5.09 1.86,10.08 2.21,10.29 3.48,10.32 3.96,10.34 0.13,0 0.26,-0.03 0.38,-0.09 0.72,-0.38 6.17,-2.52 13.08,-5.23 27.33,-10.71 42.23,-16.76 42.7,-18.05 0.04,-0.11 0.04,-0.23 -0.01,-0.32 -0.05,-0.08 -0.19,-0.36 -0.42,-0.78 1.96,-0.77 3.73,-1.65 3.77,-2.31 0.02,-0.24 -0.24,-0.91 -0.68,-1.85 1.08,-0.39 3.11,-1 6.78,-1.76 3.09,-0.63 6.17,-1.79 8.6,-2.85 0.83,2.72 1.42,4.59 1.65,5.1 0.43,0.95 1.2,1.49 2.16,1.52 0.98,0.02 2.1,-0.48 2.86,-1.28 0.49,-0.52 0.74,-1.08 0.7,-1.57 -0.03,-0.32 -0.59,-2.43 -1.48,-5.62 1.12,-0.45 1.92,-1.05 2,-1.83 0.13,-1.41 -0.88,-2.62 -1.32,-3.08 0.36,-0.47 1.14,-1.61 1.17,-2.73 0.04,-1.11 -0.94,-2.16 -1.43,-2.61 0.69,-0.63 2.45,-2.45 2.08,-4.56 -0.35,-2.01 -2.16,-2.91 -3.01,-3.23 0.22,-0.31 0.34,-0.68 0.35,-1.09 0.04,-0.93 -0.48,-2.05 -1.39,-3.01 -0.36,-0.37 -0.96,-0.57 -1.85,-0.59 -0.65,-0.02 -1.36,0.06 -2.01,0.16 -0.37,-0.41 -0.88,-0.91 -1.44,-1.35 -0.53,-1.79 -1.04,-3.56 -1.54,-5.27 8.98,-2.06 17.43,-4.07 18.83,-4.6 3.28,-1.25 5.11,-4.73 4.46,-8.46z"/>
   <path class="fil12" d="M8.15 101.63c-3.92,1.58 -6.74,2.71 -7.53,3.03 1.51,9.69 3.86,19.65 5.22,19.69 0.03,0 0.05,-0.01 0.08,-0.03 0.75,-0.39 5.95,-2.43 13.14,-5.25 14.31,-5.6 40.76,-15.97 42.32,-17.66 -0.91,-1.7 -2.18,-3.96 -3.55,-6.26 -16.03,4.98 -32.92,7.18 -49.68,6.48z"/>
   <path class="fil9" d="M61.25 99.94c1.93,-0.75 3.4,-1.47 3.48,-1.82 0,-0.41 -1.32,-3.02 -2.98,-5.9 -1.27,0.67 -2.59,1.24 -3.95,1.71 1.43,2.38 2.7,4.64 3.45,6.01z"/>
   <path class="fil4" d="M71.33 76.28c0.98,-2.19 2.1,-4.66 3.34,-5.04 1.24,-0.37 1.75,0.33 2.24,1 0.34,0.46 0.68,0.93 1.3,1.26 0.64,0.35 1.35,0.54 2.01,0.55 -0.04,-0.03 -0.08,-0.06 -0.11,-0.1 -1.18,-1.26 -1.75,-3.21 -3.35,-3.84 -2.17,-0.87 -4.27,1.3 -5.62,3.21 -1.77,2.51 -3.61,5.71 -2.23,8.45 0.38,0.75 0.98,1.38 1.35,2.14 1.24,2.5 -0.37,5.66 -2.77,7.09 -1.47,0.88 -3.15,1.27 -4.88,1.47 0.69,1.21 1.3,2.36 1.77,3.31 1.12,-0.41 3.19,-1.03 6.92,-1.8 3.26,-0.68 6.52,-1.94 8.99,-3.04 -0.26,0.02 -0.5,0.03 -0.72,0.04 -0.13,0 -0.25,0 -0.37,0 -1.86,-0.05 -2.43,-1.11 -2.6,-1.74 -0.16,-0.54 -0.13,-1.2 0,-1.64 -1.12,-0.14 -1.88,-0.77 -2.26,-1.87 -0.61,-1.76 0.66,-3.45 1.27,-4.13 -0.64,-0.33 -1.85,-1.12 -2.2,-2.52 -0.37,-1.48 0.76,-2.61 1.36,-3.1 -0.43,-0.34 -1.15,-1.04 -1.58,-2.2 -0.48,0.87 -0.93,1.88 -1.32,2.74 -0.54,1.19 -1,2.22 -1.39,2.66 -0.1,0.12 -0.29,0.13 -0.41,0.02 -0.13,-0.1 -0.14,-0.29 -0.03,-0.41 0.33,-0.37 0.8,-1.41 1.29,-2.51z"/>
   <path class="fil4" d="M78.87 78.57c-0.84,-0.1 -1.72,-0.26 -2.34,-0.82 -0.48,-0.43 -0.73,-1.14 -0.57,-1.73 -0.28,0.11 -0.48,0.19 -0.54,0.22 -0.19,0.12 -1.8,1.24 -1.44,2.69 0.36,1.43 1.84,2.13 2.17,2.26 2.63,-0.4 8.87,-1.71 9.59,-1.86 0.18,-0.15 0.81,-0.71 1.34,-1.49 -2.65,0.77 -5.46,1.03 -8.21,0.73z"/>
   <path class="fil4" d="M86.91 83.23c-1.85,0.44 -3.74,0.71 -5.64,0.83 -1.13,0.06 -2.31,0.06 -3.34,-0.41 -0.78,-0.36 -1.45,-1.07 -1.67,-1.88 0,0 -0.01,0.01 -0.01,0.01 -0.33,0.33 -1.93,2.07 -1.35,3.76 0.48,1.42 1.6,1.48 2.02,1.5 0.05,0 0.1,0 0.16,0.02 0.96,-0.24 7.32,-1.8 8.94,-2.35 0.15,-0.18 0.6,-0.78 0.89,-1.48z"/>
   <path class="fil4" d="M85.99 89.18c-1.91,0.2 -3.86,0.04 -5.71,-0.48 -0.75,-0.21 -1.59,-0.6 -1.73,-1.37l-0.05 -0.01c-0.62,0.15 -1.08,0.26 -1.29,0.31 -0.1,0.25 -0.26,1.12 0.09,1.81 0.35,0.67 1.09,0.99 2.24,0.95 2.39,-0.1 4.94,-0.55 6.45,-1.21z"/>
   <path class="fil10" d="M74.04 45.46c-0.96,0.03 -1.86,0.42 -2.77,0.7 -1.16,0.35 -2.35,0.62 -3.48,1.03 -0.24,0.09 -0.24,0.48 0.05,0.48 1.09,-0.01 2.17,-0.18 3.24,-0.37 1.07,-0.19 2.26,-0.3 3.2,-0.86 0.42,-0.25 0.3,-1 -0.24,-0.98z"/>
   <path class="fil10" d="M83.62 45.54c-1.86,0.25 -3.73,1.09 -5.52,1.63 -2.01,0.61 -4.03,1.19 -6.04,1.77 -4.03,1.15 -8.17,1.98 -12.17,3.22 -0.19,0.06 -0.18,0.4 0.04,0.38 4,-0.36 8.01,-1.39 11.9,-2.35 2.03,-0.51 4.05,-1.09 6.06,-1.69 1.98,-0.59 4.26,-1.09 6.05,-2.14 0.46,-0.26 0.16,-0.88 -0.32,-0.82z"/>
   <path class="fil10" d="M84.8 49.14c-1.86,0.25 -3.72,1.09 -5.52,1.63 -2.01,0.61 -4.02,1.19 -6.04,1.77 -4.03,1.15 -8.16,1.98 -12.16,3.22 -0.2,0.06 -0.19,0.4 0.04,0.38 4,-0.36 8,-1.39 11.89,-2.35 2.04,-0.51 4.05,-1.09 6.06,-1.69 1.98,-0.59 4.26,-1.09 6.06,-2.14 0.46,-0.26 0.16,-0.88 -0.33,-0.82z"/>
   <g>
    <path class="fil13 str1" d="M77.96 23.89c2,7.79 -2.7,15.72 -10.48,17.72 -7.79,1.99 -15.72,-2.7 -17.72,-10.49 -2,-7.79 2.7,-15.72 10.48,-17.72 7.79,-1.99 15.72,2.7 17.72,10.49z"/>
    <path class="fil14" d="M53.61 30.13l20.46 -5.24c0,0 3.74,9.34 -7.57,12.24 0,0 -10.25,3.29 -12.89,-7z"/>
    <path class="fil14" d="M55.36 25.85l0 -0.01c-0.02,-0.05 -0.14,-0.33 -0.23,-0.7 -0.12,-0.47 -0.21,-1.09 -0.08,-1.6 0.06,-0.25 0.17,-0.47 0.35,-0.66 0.18,-0.18 0.43,-0.34 0.81,-0.44 0.42,-0.11 0.75,-0.08 1.03,0.02 0.41,0.16 0.73,0.5 0.97,0.91 0.25,0.41 0.4,0.87 0.48,1.2 0.03,0.13 0.06,0.24 0.07,0.31l0.02 0.09 0 0.02c0.03,0.19 0.2,0.32 0.39,0.29 0.18,-0.02 0.31,-0.2 0.29,-0.38 0,-0.01 -0.03,-0.21 -0.11,-0.5 -0.12,-0.49 -0.37,-1.25 -0.88,-1.85 -0.26,-0.31 -0.58,-0.57 -0.99,-0.73 -0.41,-0.15 -0.9,-0.18 -1.44,-0.04 -0.48,0.12 -0.86,0.34 -1.13,0.63 -0.41,0.43 -0.57,0.98 -0.6,1.49 -0.03,0.52 0.06,1.02 0.16,1.41 0.12,0.48 0.26,0.8 0.27,0.82 0.08,0.17 0.28,0.25 0.45,0.17 0.17,-0.08 0.25,-0.28 0.17,-0.45z"/>
    <path class="fil14" d="M71.19 21.91c0,-0.02 -0.03,-0.37 -0.15,-0.85 -0.14,-0.52 -0.38,-1.2 -0.86,-1.73 -0.24,-0.26 -0.55,-0.48 -0.92,-0.6 -0.38,-0.12 -0.82,-0.13 -1.3,-0.01 -0.54,0.14 -0.95,0.4 -1.24,0.73 -0.43,0.5 -0.57,1.13 -0.59,1.69 -0.01,0.57 0.09,1.11 0.18,1.47 0.08,0.3 0.15,0.48 0.15,0.49 0.07,0.18 0.27,0.27 0.44,0.2 0.18,-0.07 0.27,-0.26 0.2,-0.44l-0.01 -0.03c-0.01,-0.05 -0.06,-0.19 -0.11,-0.39 -0.12,-0.43 -0.23,-1.14 -0.11,-1.74 0.06,-0.3 0.18,-0.58 0.37,-0.8 0.19,-0.22 0.46,-0.4 0.89,-0.51 0.38,-0.1 0.68,-0.08 0.92,-0.01 0.36,0.12 0.65,0.38 0.87,0.73 0.22,0.35 0.37,0.77 0.46,1.12 0.05,0.21 0.08,0.4 0.1,0.53 0.01,0.07 0.02,0.12 0.03,0.16l0 0.04 0 0.01c0.02,0.18 0.18,0.32 0.37,0.31 0.19,-0.02 0.33,-0.18 0.31,-0.37z"/>
   </g>
   <g>
    <path class="fil15" d="M131.99 36.56c-2.63,7.6 -10.92,11.63 -18.52,9 -7.6,-2.63 -11.63,-10.92 -9.01,-18.52 2.63,-7.6 10.92,-11.63 18.52,-9 7.6,2.63 11.63,10.92 9.01,18.52z"/>
    <path class="fil16" d="M113.12 33.55l-2.77 -0.96c0.01,-0.14 0.03,-0.27 0.07,-0.4 0.28,-0.8 1.15,-1.22 1.95,-0.95 0.79,0.28 1.22,1.15 0.94,1.95 -0.04,0.13 -0.11,0.25 -0.19,0.36z"/>
    <path class="fil16" d="M123.46 37.12l-2.77 -0.96c0.01,-0.13 0.03,-0.26 0.07,-0.4 0.28,-0.79 1.15,-1.22 1.94,-0.94 0.8,0.28 1.22,1.15 0.95,1.94 -0.05,0.13 -0.11,0.25 -0.19,0.36z"/>
    <path class="fil16" d="M109.46 37.75c-0.06,-0.02 -0.12,-0.08 -0.15,-0.15 -0.04,-0.12 0.03,-0.26 0.15,-0.31 2.74,-0.97 4.92,-0.86 6.62,-0.27 3.39,1.17 4.84,4.22 4.86,4.27 0.06,0.12 0.01,0.26 -0.11,0.32 -0.06,0.02 -0.13,0.03 -0.18,0.01 -0.06,-0.02 -0.12,-0.07 -0.14,-0.13 -0.09,-0.18 -1.41,-2.95 -4.53,-4.02 -1.61,-0.56 -3.71,-0.67 -6.36,0.28 -0.05,0.02 -0.11,0.02 -0.16,0z"/>
   </g>
  </g>
 </g>
</svg>
