<?xml version="1.0" encoding="UTF-8"?>
<!DOCTYPE svg PUBLIC "-//W3C//DTD SVG 1.1//EN" "http://www.w3.org/Graphics/SVG/1.1/DTD/svg11.dtd">
<!-- Creator: CorelDRAW 2019 -->
<svg xmlns="http://www.w3.org/2000/svg" xml:space="preserve" width="32px" height="40px" version="1.1" style="shape-rendering:geometricPrecision; text-rendering:geometricPrecision; image-rendering:optimizeQuality; fill-rule:evenodd; clip-rule:evenodd"
viewBox="0 0 0.16 0.2"
 xmlns:xlink="http://www.w3.org/1999/xlink"
 xmlns:xodm="http://www.corel.com/coreldraw/odm/2003">
 <defs>
  <style type="text/css">
   <![CDATA[
    .fil0 {fill:#3E394F;fill-rule:nonzero}
   ]]>
  </style>
 </defs>
 <g id="Layer_x0020_1">
  <metadata id="CorelCorpID_0Corel-Layer"/>
  <path class="fil0" d="M0.09 0.16l0 0.02 0 0 -0.01 0 -0.01 0 0 -0.02c0,-0.01 -0.01,-0.02 -0.01,-0.02 0,-0.02 0.01,-0.03 0.02,-0.03 0.02,0 0.03,0.01 0.03,0.03 0,0 -0.01,0.01 -0.02,0.02zm-0.04 -0.11c0,-0.01 0.02,-0.03 0.03,-0.03 0.02,0 0.03,0.02 0.03,0.03l0 0.02 -0.06 0 0 -0.02zm0.1 0.02l-0.02 0 0 -0.02c0,-0.03 -0.02,-0.05 -0.05,-0.05 -0.03,0 -0.05,0.02 -0.05,0.05l0 0.02 -0.01 0c-0.01,0 -0.02,0 -0.02,0.01l0 0.11c0,0 0.01,0.01 0.02,0.01l0.13 0c0.01,0 0.01,-0.01 0.01,-0.01l0 -0.11c0,-0.01 0,-0.01 -0.01,-0.01z"/>
 </g>
</svg>
