<?xml version="1.0" encoding="UTF-8"?>
<!DOCTYPE svg PUBLIC "-//W3C//DTD SVG 1.1//EN" "http://www.w3.org/Graphics/SVG/1.1/DTD/svg11.dtd">
<!-- Creator: CorelDRAW 2019 -->
<svg xmlns="http://www.w3.org/2000/svg" xml:space="preserve" width="25px" height="25px" version="1.1" style="shape-rendering:geometricPrecision; text-rendering:geometricPrecision; image-rendering:optimizeQuality; fill-rule:evenodd; clip-rule:evenodd"
viewBox="0 0 0.1 0.1"
 xmlns:xlink="http://www.w3.org/1999/xlink"
 xmlns:xodm="http://www.corel.com/coreldraw/odm/2003">
 <defs>
  <style type="text/css">
   <![CDATA[
    .fil0 {fill:#3E394F}
   ]]>
  </style>
 </defs>
 <g id="Layer_x0020_1">
  <metadata id="CorelCorpID_0Corel-Layer"/>
  <path class="fil0" d="M0.1 0.1l-0.1 0 0 -0.1 0.1 0 0 0.1zm-0.07 -0.05c0,0 0,0 0,0 -0.01,0 -0.01,0 0,0l0.01 0.02 0 0 0.01 0 0.02 -0.03c0.01,0 0.01,0 0,-0.01 0,0 0,0 0,0 0,0 0,0 0,0l-0.03 0.03 -0.01 -0.01c0,0 0,0 0,0l0 0z"/>
 </g>
</svg>
